# xmcd CD database file
#
# Track frame offsets:
#	150
#	2060
#	26079
#	45600
#	59464
#	72875
#	88992
#	112019
#	127411
#	143330
#	160375
#	173190
#	189126
#	212023
#	228957
#	247827
#
# Disc length: 3364 seconds
#
# Revision: 0
# Processed by: cddbd v1.5.1PL2 Copyright (c) Steve Scherf et al.
# Submitted via: CDex 1.51
#
DISCID=db0d2210
DTITLE=Norah Jones - Live at the House of Blues
DYEAR=2002
DGENRE=Blues
TTITLE0=Intro
TTITLE1=Cool Cold Heart
TTITLE2=Nightingale
TTITLE3=One Flight Down
TTITLE4=Seven Years
TTITLE5=Feelin' the Same Way
TTITLE6=Comes Love
TTITLE7=Something Is Calling You
TTITLE8=Come Away With Me
TTITLE9=What Am I To You?
TTITLE10=Painter Song
TTITLE11=Lonestar
TTITLE12=I've Got To See You Again
TTITLE13=Bessie Smith
TTITLE14=I Don't Know Why
TTITLE15=Encore
EXTD=YEAR: 2002
EXTT0=
EXTT1=
EXTT2=
EXTT3=
EXTT4=
EXTT5=
EXTT6=
EXTT7=
EXTT8=
EXTT9=
EXTT10=
EXTT11=
EXTT12=
EXTT13=
EXTT14=
EXTT15=
PLAYORDER=
